<?xml version="1.0" encoding="UTF-8"?>
<!DOCTYPE svg PUBLIC "-//W3C//DTD SVG 1.1//EN" "http://www.w3.org/Graphics/SVG/1.1/DTD/svg11.dtd">
<svg xmlns="http://www.w3.org/2000/svg" version="1.1" width="512px" height="512px" style="shape-rendering:geometricPrecision; text-rendering:geometricPrecision; image-rendering:optimizeQuality; fill-rule:evenodd; clip-rule:evenodd" xmlns:xlink="http://www.w3.org/1999/xlink">
<g><path style="opacity:0.961" fill="#000" d="M 376.5,44.5 C 377.777,45.6936 378.444,47.3603 378.5,49.5C 380.569,78.8994 383.069,108.233 386,137.5C 399.262,134.893 412.429,131.727 425.5,128C 430.996,116.184 436.496,104.351 442,92.5C 444.45,87.7163 447.95,83.883 452.5,81C 463.768,78.2263 475.102,77.893 486.5,80C 492.234,83.1801 494.067,88.0134 492,94.5C 487.269,122.902 472.103,143.735 446.5,157C 438.739,161.214 430.739,164.881 422.5,168C 401.778,174.597 380.778,180.097 359.5,184.5C 358.795,172.829 357.961,161.162 357,149.5C 350.314,156.421 342.814,162.254 334.5,167C 316.141,173.295 297.807,178.795 279.5,183.5C 280.373,181.587 281.373,179.753 282.5,178C 276.423,180.86 270.09,183.527 263.5,186C 259.219,188.127 255.053,187.961 251,185.5C 242.144,191.805 232.31,194.305 221.5,193C 218.624,192.562 215.957,191.562 213.5,190C 209.12,185.289 205.12,180.289 201.5,175C 195.645,172.148 189.645,171.815 183.5,174C 169.539,181.456 157.872,191.623 148.5,204.5C 156.465,205.863 164.465,207.03 172.5,208C 175.99,213.13 176.49,218.63 174,224.5C 170.228,245.22 160.394,262.387 144.5,276C 132.142,285.005 118.809,292.338 104.5,298C 86.684,302.87 69.0173,308.204 51.5,314C 41.925,317.586 34.0916,323.419 28,331.5C 27.2618,333.953 26.7618,336.453 26.5,339C 32.0462,372.11 37.2129,405.277 42,438.5C 43.5412,459.216 41.5412,479.549 36,499.5C 31.3105,471.719 25.9772,444.052 20,416.5C 12.8496,382.459 12.8496,348.459 20,314.5C 23.1048,294.767 33.6048,280.6 51.5,272C 69.724,264.926 88.3907,259.259 107.5,255C 116.446,236.941 125.279,218.774 134,200.5C 145.369,178.123 160.202,158.29 178.5,141C 194.108,127.806 210.775,126.14 228.5,136C 231.885,139.717 234.885,143.717 237.5,148C 249.151,150.669 258.651,147.169 266,137.5C 269.718,132.057 272.884,126.391 275.5,120.5C 276.527,126.822 276.527,133.155 275.5,139.5C 291.713,135.621 302.047,125.621 306.5,109.5C 306.988,118.268 305.988,126.935 303.5,135.5C 321.228,133.737 338.561,129.737 355.5,123.5C 353.893,110.212 353.059,96.8788 353,83.5C 361.359,70.7764 369.192,57.7764 376.5,44.5 Z"/></g>
<g><path style="opacity:0.947" fill="#000" d="M 382.5,209.5 C 383.978,209.238 385.311,209.571 386.5,210.5C 379.961,223.745 373.294,236.911 366.5,250C 345.395,254.434 324.228,258.601 303,262.5C 302.167,262.167 301.333,261.833 300.5,261.5C 307.039,248.255 313.706,235.089 320.5,222C 341.303,217.873 361.97,213.706 382.5,209.5 Z"/></g>
</svg>
